<svg width="165" height="165" viewBox="0 0 165 165" fill="none" xmlns="http://www.w3.org/2000/svg">
<g clip-path="url(#clip0_1_9)">
<path fill-rule="evenodd" clip-rule="evenodd" d="M44.2705 1.95238C42.5466 3.85524 42.5494 3.99238 44.3544 7.34191C46.45 11.2314 57.8838 23.7781 62.0064 26.7114L64.7281 28.6476L68.6658 26.0438L72.6035 23.439L69.8942 21.5171C68.4037 20.46 64.6118 17.1229 61.467 14.101L55.7491 8.60762L80.05 8.63048L104.351 8.65333L97.7487 14.86C91.5505 20.6857 84.8416 25.459 71.7829 33.3333C65.2789 37.7576 44.0704 57.9276 37.9447 66.3114L33.681 72.1467L30.4209 67.3295C25.7752 60.4667 13.6533 48.3562 8.38905 45.3191C4.74773 43.2171 3.54888 42.9305 1.95646 43.7819C0.038119 44.8086 0 45.5038 0 79.4895C0 109.729 0.190595 114.341 1.49713 115.647C2.32145 116.47 3.56032 117.143 4.25123 117.143C6.41353 117.143 16.4141 109.174 22.6665 102.47L28.657 96.0486L26.5642 92.5476C23.4203 87.2876 23.3689 87.2752 20.6767 91.1571C19.3006 93.1429 16.0148 96.8924 13.375 99.4905L8.57679 104.214V80.5991C8.57679 62.1343 8.83695 57.0695 9.76801 57.3743C12.0818 58.1314 23.9159 72.7457 28.7742 80.8438C31.4816 85.3562 35.5565 91.4895 37.8303 94.4733C43.1574 101.464 55.7539 113.843 64.5823 120.761L71.5094 126.19L68.4418 128.571C59.1436 135.788 53.016 141.621 48.6961 147.368C43.531 154.241 42.9602 156.13 45.334 158.504C46.6387 159.807 51.1339 160 80.1806 160C101.346 160 114.203 159.64 115.373 159.014C119.538 156.787 116.518 150.63 105.896 139.694C97.5162 131.068 97.0559 130.854 92.4139 133.462C90.3307 134.631 88.6297 135.831 88.6335 136.128C88.6373 136.424 90.0305 137.614 91.7307 138.772C93.4308 139.93 97.1655 143.251 100.03 146.153L105.239 151.429H81.1869H57.1347L58.6481 149.12C61.0439 145.467 72.7111 136.167 81.6548 130.782C86.1615 128.069 93.1277 123.268 97.1359 120.111C104.138 114.6 118.748 99.0352 123.555 91.9629C124.824 90.0971 126.002 88.5714 126.173 88.5714C126.344 88.5714 128.684 91.5286 131.374 95.1438C136.948 102.635 147.738 112.974 152.856 115.73C155.52 117.163 156.698 117.351 157.97 116.55C159.482 115.596 159.645 112.539 159.884 80.8486C160.143 46.4591 160.129 46.1771 158.109 44.5229C156.159 42.9238 155.917 42.9429 152.287 44.9829C147.708 47.5543 138.451 55.8029 134.385 60.9333L131.423 64.6705L133.999 68.561L136.576 72.4514L139.519 68.8448C144.606 62.6124 149.827 57.1429 150.691 57.1429C151.149 57.1429 151.505 67.7495 151.482 80.7143L151.441 104.286L145.231 97.6876C139.517 91.6162 136.533 87.4514 126.46 71.4886C121.537 63.6876 103.611 44.4048 95.8828 38.5962C92.4158 35.9905 89.5798 33.5838 89.5798 33.2467C89.5798 32.9095 91.2322 31.541 93.2526 30.2048C101.966 24.4429 117.216 7.92381 117.216 4.24857C117.216 3.5581 116.542 2.32 115.719 1.49619C114.413 0.191429 109.852 2.38419e-07 80.1301 2.38419e-07C46.9703 2.38419e-07 45.9897 0.0533334 44.2705 1.95238ZM92.0099 50.9248C100.018 54.8267 107.78 62.8438 110.485 70.0067C115.756 83.9648 108.332 100.73 93.1563 109.132C88.7983 111.546 86.8181 112.795 80.1806 112.795C73.3049 112.795 72.3119 111.585 66.8742 108.638C55.974 102.732 48.6008 91.2105 48.6028 80.0857C48.6037 68.199 56.1113 56.8733 67.931 50.9248C74.0234 47.8591 75.4672 47.5038 80.5742 47.8124C84.4432 48.0467 88.2037 49.0695 92.0099 50.9248Z" fill="#1FCFCF"/>
<circle cx="80" cy="80" r="33" stroke="#1FCFCF" stroke-width="4"/>
</g>
<defs>
<clipPath id="clip0_1_9">
<rect width="165" height="165" fill="white"/>
</clipPath>
</defs>
</svg>
